<?xml version="1.0" encoding="UTF-8"?>
<svg xmlns="http://www.w3.org/2000/svg" version="1.1" viewBox="0 0 12 12">
  <g>
    <path
      d="M2.12,5.76c.12-1.83.25-3.68.25-3.68,0-.16.14-.28.3-.28h.67c.16,0,.29.12.3.28l.25,3.68c.22.07.43.16.62.27l-.27-4c-.03-.47-.43-.84-.9-.84h-.67c-.47,0-.87.37-.9.84l-.27,4.01c.2-.12.4-.22.62-.29Z" />
    <path
      d="M10.72,3.09c-.11-.12-.3-.13-.42-.02l-2.5,2.25v-2.03c0-.08-.03-.15-.08-.21-.11-.12-.3-.13-.42-.02l-2.26,2.03.05.76,2.11-1.9v2.03c0,.07.03.14.07.19.11.12.3.14.42.03l2.5-2.25v5.93c0,.17-.13.3-.3.3h-.3v-2.4c0-.33-.27-.6-.6-.6h-2.4c-.33,0-.6.27-.6.6v2.4h-.01l.6.6h3.31c.5,0,.9-.4.9-.9V3.3c0-.08-.03-.15-.08-.21ZM9,10.2h-2.4v-2.4h2.4v2.4Z" />
  </g>
  <path
    d="M3.01,6.25c1.28,0,2.31,1.04,2.31,2.31,0,.5-.16.99-.47,1.39l1.74,1.74c.12.12.12.32,0,.45-.11.11-.28.12-.41.03l-.03-.03-1.74-1.74c-1.02.77-2.47.57-3.24-.44-.77-1.02-.57-2.47.44-3.24.4-.31.89-.47,1.4-.47ZM3.01,6.88c-.93,0-1.68.75-1.68,1.68s.75,1.68,1.68,1.68,1.68-.75,1.68-1.68-.75-1.68-1.68-1.68Z" />
</svg>